# File created by Blade
# Date/Time:  Tue Jan 27 20:02:46 2015
#---------------------------------------------------------
:version 1.10
:name HOM
:units
  mass 1.0
  length 1.000000
  angle deg
:documentation
     Acclaim Skeleton File
:root
   axis xyz
   order TX TY TZ RX RY RZ
   position 0.000000 0.000000 0.000000
   orientation 0 0 0
:bonedata
   begin
      id 1
      name Spine_dum
      direction 0.000000 1.000000 0.000000
      length 6.116652
      axis 0.0 0.0 0.0 xyz
   end
   begin
      id 2
      name LeftUpLeg_dum
      direction 1.000000 0.000000 0.000000
      length 4.711765
      axis 0.0 0.0 0.0 xyz
   end
   begin
      id 3
      name RightUpLeg_dum
      direction -1.000000 0.000000 0.000000
      length 4.711765
      axis 0.0 0.0 0.0 xyz
   end
   begin
      id 4
      name Spine
      direction 0.000000 1.000000 0.000000
      length 0.000000
      axis 0.0 0.0 0.0 xyz
      dof rx ry rz
   end
   begin
      id 5
      name Spine_dum1
      direction 0.000000 1.000000 0.000000
      length 15.225563
      axis 0.0 0.0 0.0 xyz
   end
   begin
      id 6
      name Spine_dum2
      direction 0.000000 1.000000 0.000000
      length 8.977654
      axis 0.0 0.0 0.0 xyz
   end
   begin
      id 7
      name Spine_dum3
      direction 0.000000 1.000000 0.000000
      length 8.977654
      axis 0.0 0.0 0.0 xyz
   end
   begin
      id 8
      name Head
      direction 0.000000 1.000000 0.000000
      length 4.527550
      axis 0.0 0.0 0.0 xyz
      dof rx ry rz
   end
   begin
      id 9
      name LeftShoulder
      direction 1.000000 0.000000 0.000000
      length 7.110130
      axis 0.0 0.0 -90.0 xyz
      dof rx ry rz
   end
   begin
      id 10
      name LeftArm
      direction 1.000000 0.000000 0.000000
      length 10.398341
      axis 0.0 0.0 -90.0 xyz
      dof rx ry rz
   end
   begin
      id 11
      name LeftForeArm
      direction 1.000000 0.000000 0.000000
      length 8.888997
      axis 0.0 0.0 -90.0 xyz
      dof ry rz rx
   end
   begin
      id 12
      name LeftHand
      direction 0.000000 0.000000 0.000000
      length 0.000000
      axis 0.0 0.0 -90.0 xyz
      dof rx ry rz
   end
   begin
      id 13
      name LeftHand_dum1
      direction 0.000000 0.000000 0.000000
      length 0.000000
      axis 0.0 0.0 -90.0 xyz
   end
   begin
      id 14
      name LeftHand_dum2
      direction 1.000000 0.000000 0.000000
      length 3.937000
      axis 0.0 0.0 -90.0 xyz
   end
   begin
      id 15
      name LeftHandThumb1
      direction 0.000000 0.000000 1.000000
      length 3.937000
      axis 0.0 0.0 -90.0 xyz
      dof rx rz ry
   end
   begin
      id 16
      name RightShoulder
      direction -1.000000 0.000000 0.000000
      length 7.110130
      axis 0.0 0.0 90.0 xyz
      dof rx ry rz
   end
   begin
      id 17
      name RightArm
      direction -1.000000 0.000000 0.000000
      length 10.398341
      axis 0.0 0.0 90.0 xyz
      dof rx ry rz
   end
   begin
      id 18
      name RightForeArm
      direction -1.000000 0.000000 0.000000
      length 8.888997
      axis 0.0 0.0 90.0 xyz
      dof ry rz rx
   end
   begin
      id 19
      name RightHand
      direction 0.000000 0.000000 0.000000
      length 0.000000
      axis 0.0 0.0 90.0 xyz
      dof rx ry rz
   end
   begin
      id 20
      name RightHand_dum1
      direction 0.000000 0.000000 0.000000
      length 0.000000
      axis 0.0 0.0 90.0 xyz
   end
   begin
      id 21
      name RightHand_dum2
      direction -1.000000 0.000000 0.000000
      length 3.937000
      axis 0.0 0.0 90.0 xyz
   end
   begin
      id 22
      name RightHandThumb1
      direction 0.000000 0.000000 1.000000
      length 3.937000
      axis 0.0 0.0 90.0 xyz
      dof rx rz ry
   end
   begin
      id 23
      name LeftUpLeg
      direction 0.000000 -1.000000 0.000000
      length 15.510451
      axis 0.0 0.0 0.0 xyz
      dof rx ry rz
   end
   begin
      id 24
      name LeftLeg
      direction 0.000000 -1.000000 0.000000
      length 14.858061
      axis 0.0 0.0 0.0 xyz
      dof rx ry rz
   end
   begin
      id 25
      name LeftFoot
      direction 0.000000 -0.258819 0.965926
      length 5.128852
      axis 15.0 0.0 0.0 xyz
      dof rx ry rz
   end
   begin
      id 26
      name LeftToeBase
      direction 0.000000 0.000000 1.000000
      length 2.952750
      axis 0.0 0.0 0.0 xyz
      dof rx ry rz
   end
   begin
      id 27
      name RightUpLeg
      direction 0.000000 -1.000000 0.000000
      length 15.510451
      axis 0.0 0.0 0.0 xyz
      dof rx ry rz
   end
   begin
      id 28
      name RightLeg
      direction 0.000000 -1.000000 0.000000
      length 14.858061
      axis 0.0 0.0 0.0 xyz
      dof rx ry rz
   end
   begin
      id 29
      name RightFoot
      direction 0.000000 -0.258819 0.965926
      length 5.128852
      axis 15.0 0.0 0.0 xyz
      dof rx ry rz
   end
   begin
      id 30
      name RightToeBase
      direction 0.000000 0.000000 1.000000
      length 2.952750
      axis 0.0 0.0 0.0 xyz
      dof rx ry rz
   end
:hierarchy
   begin
      root Spine_dum LeftUpLeg_dum RightUpLeg_dum
      Spine_dum Spine
      LeftUpLeg_dum LeftUpLeg
      RightUpLeg_dum RightUpLeg
      Spine Spine_dum1 Spine_dum2 Spine_dum3
      Spine_dum1 Head
      Spine_dum2 LeftShoulder
      Spine_dum3 RightShoulder
      LeftShoulder LeftArm
      LeftArm LeftForeArm
      LeftForeArm LeftHand
      LeftHand LeftHand_dum1 LeftHand_dum2
      LeftHand_dum1 LeftHandThumb1
      RightShoulder RightArm
      RightArm RightForeArm
      RightForeArm RightHand
      RightHand RightHand_dum1 RightHand_dum2
      RightHand_dum1 RightHandThumb1
      LeftUpLeg LeftLeg
      LeftLeg LeftFoot
      LeftFoot LeftToeBase
      RightUpLeg RightLeg
      RightLeg RightFoot
      RightFoot RightToeBase
   end

# File created by Blade
# Date/Time:  Tue Jan 27 20:02:37 2015
# Frame Rate: 120.000 fps
#------------------------------------------------------
:FULLY-SPECIFIED
:DEGREES
396
root 8.223121 32.341555 2.640623 -8.315219 30.119586 -2.740493
Spine 6.374324 -9.349290 -1.080257
Head 11.313299 -18.851809 7.129603
LeftShoulder -11.010976 -3.320564 31.871862
LeftArm -7.493696 -5.700705 -86.866951
LeftForeArm -2.233403 -0.000000 115.336829
LeftHand 12.040726 -0.000000 10.294167
LeftHandThumb1 -26.253704 0.000000 33.147579
RightShoulder -22.762144 -17.314320 -19.675735
RightArm 15.643350 -23.141591 86.209491
RightForeArm -13.887855 -0.000000 23.424918
RightHand 16.965200 -0.000000 7.234270
RightHandThumb1 -24.326973 -0.000000 -32.862282
LeftUpLeg 10.214869 -9.570291 -8.255861
LeftLeg -0.082310 -0.000000 0.000000
LeftFoot -15.338748 10.922549 -22.231116
LeftToeBase 19.187099 -0.000000 -0.000000
RightUpLeg -50.030760 16.475363 10.758331
RightLeg 91.427328 -0.000000 -0.000000
RightFoot 4.587164 -11.912534 20.532231
RightToeBase 9.058790 -0.000000 -0.000000
397
root 8.219709 32.336822 2.620207 -8.305617 29.919550 -2.662373
Spine 6.396616 -9.340567 -1.132484
Head 11.274203 -18.735880 7.163481
LeftShoulder -11.072723 -3.228113 31.898255
LeftArm -7.476575 -5.558038 -86.788834
LeftForeArm -2.219562 -0.000000 115.342766
LeftHand 12.088306 -0.000000 10.397620
LeftHandThumb1 -26.253704 0.000000 33.147579
RightShoulder -22.646296 -17.088573 -19.782679
RightArm 15.928466 -23.361301 86.014395
RightForeArm -13.982855 -0.000000 23.790410
RightHand 16.918501 -0.000000 7.025861
RightHandThumb1 -24.326973 -0.000000 -32.862282
LeftUpLeg 10.258565 -9.549078 -8.338534
LeftLeg -0.161144 -0.000000 0.000000
LeftFoot -15.409242 11.057643 -22.333453
LeftToeBase 19.447612 -0.000000 -0.000000
RightUpLeg -49.971167 16.549882 10.698982
RightLeg 91.365514 -0.000000 -0.000000
RightFoot 4.812033 -11.719790 20.433614
RightToeBase 8.668876 -0.000000 -0.000000
398
root 8.214708 32.333618 2.602095 -8.323569 29.729301 -2.618826
Spine 6.435154 -9.292622 -1.153364
Head 11.215796 -18.626884 7.212758
LeftShoulder -11.121754 -3.173028 31.928244
LeftArm -7.445474 -5.390206 -86.741899
LeftForeArm -2.247367 -0.000000 115.340560
LeftHand 12.088436 -0.000000 10.449530
LeftHandThumb1 -26.253704 0.000000 33.147579
RightShoulder -22.547890 -16.881322 -19.858658
RightArm 16.160868 -23.494768 85.850289
RightForeArm -14.043727 0.000000 24.174010
RightHand 16.892367 -0.000000 7.047076
RightHandThumb1 -24.326973 -0.000000 -32.862282
LeftUpLeg 10.307491 -9.558634 -8.390689
LeftLeg -0.205061 -0.000000 0.000000
LeftFoot -15.632630 11.189112 -22.622725
LeftToeBase 19.142432 -0.000000 -0.000000
RightUpLeg -49.911717 16.623611 10.670665
RightLeg 91.312820 -0.000000 -0.000000
RightFoot 4.995365 -11.661456 20.525055
RightToeBase 8.591210 -0.000000 -0.000000
399
root 8.211038 32.329759 2.585193 -8.332753 29.556024 -2.558436
Spine 6.465007 -9.237523 -1.191042
Head 11.181959 -18.592025 7.247418
LeftShoulder -11.139461 -3.163245 31.966051
LeftArm -7.453645 -5.253869 -86.713952
LeftForeArm -2.274642 -0.000000 115.334732
LeftHand 12.085251 0.000000 10.550397
LeftHandThumb1 -26.253704 0.000000 33.147579
RightShoulder -22.463583 -16.743824 -19.928187
RightArm 16.432640 -23.722901 85.663823
RightForeArm -14.099160 -0.000000 24.520651
RightHand 16.893786 -0.000000 6.870184
RightHandThumb1 -24.326973 -0.000000 -32.862282
LeftUpLeg 10.360351 -9.495872 -8.449688
LeftLeg -0.268817 -0.000000 0.000000
LeftFoot -15.764866 11.280254 -22.785569
LeftToeBase 18.945903 -0.000000 -0.000000
RightUpLeg -49.864801 16.676694 10.651890
RightLeg 91.307515 -0.000000 -0.000000
RightFoot 5.049490 -11.680078 20.501820
RightToeBase 9.229663 -0.000000 -0.000000
400
root 8.208999 32.326628 2.565662 -8.333530 29.345243 -2.488905
Spine 6.490199 -9.154617 -1.210637
Head 11.169285 -18.523432 7.242482
LeftShoulder -11.158893 -3.139111 31.970071
LeftArm -7.448309 -5.196905 -86.705804
LeftForeArm -2.281037 -0.000000 115.318059
LeftHand 12.063122 -0.000000 10.605910
LeftHandThumb1 -26.253704 0.000000 33.147579
RightShoulder -22.415175 -16.687225 -19.974375
RightArm 16.846434 -23.984639 85.420375
RightForeArm -14.037022 -0.000000 24.786503
RightHand 16.847348 -0.000000 6.953418
RightHandThumb1 -24.326973 -0.000000 -32.862282
LeftUpLeg 10.409018 -9.421203 -8.519753
LeftLeg -0.341568 -0.000000 0.000000
LeftFoot -15.838811 11.395271 -22.907694
LeftToeBase 18.448196 -0.000000 -0.000000
RightUpLeg -49.818269 16.761207 10.620990
RightLeg 91.318041 -0.000000 -0.000000
RightFoot 5.097254 -11.640737 20.420341
RightToeBase 9.199261 -0.000000 -0.000000
401
root 8.206934 32.326103 2.551158 -8.380782 29.173659 -2.462971
Spine 6.537692 -9.091030 -1.200124
Head 11.153606 -18.451602 7.270076
LeftShoulder -11.145092 -3.149874 31.966528
LeftArm -7.482081 -5.214045 -86.727208
LeftForeArm -2.249144 -0.000000 115.308797
LeftHand 12.048392 -0.000000 10.698096
LeftHandThumb1 -26.253704 0.000000 33.147579
RightShoulder -22.381074 -16.531003 -20.047544
RightArm 17.115509 -24.253969 85.244691
RightForeArm -14.149750 0.000000 24.962108
RightHand 16.981655 0.000000 6.837714
RightHandThumb1 -24.326973 -0.000000 -32.862282
LeftUpLeg 10.482238 -9.353472 -8.549193
LeftLeg -0.402091 -0.000000 0.000000
LeftFoot -15.908490 11.436840 -22.995542
LeftToeBase 18.492467 -0.000000 -0.000000
RightUpLeg -49.726901 16.799004 10.648624
RightLeg 91.331250 -0.000000 -0.000000
RightFoot 5.147249 -11.668706 20.275617
RightToeBase 9.100899 -0.000000 -0.000000
402
root 8.204542 32.324334 2.535386 -8.398238 29.011613 -2.419220
Spine 6.562716 -9.022531 -1.207748
Head 11.143221 -18.402936 7.283481
LeftShoulder -11.135847 -3.114522 31.942689
LeftArm -7.455137 -5.278119 -86.747236
LeftForeArm -2.219654 0.000000 115.289572
LeftHand 12.032423 -0.000000 10.656779
LeftHandThumb1 -26.253704 0.000000 33.147579
RightShoulder -22.370358 -16.527671 -20.055138
RightArm 17.583916 -24.559641 84.985897
RightForeArm -14.126023 -0.000000 25.050964
RightHand 17.002149 -0.000000 6.751514
RightHandThumb1 -24.326973 -0.000000 -32.862282
LeftUpLeg 10.522767 -9.274488 -8.588289
LeftLeg -0.448597 -0.000000 0.000000
LeftFoot -15.952741 11.451057 -23.076179
LeftToeBase 18.758515 -0.000000 -0.000000
RightUpLeg -49.660666 16.827349 10.668512
RightLeg 91.401986 -0.000000 -0.000000
RightFoot 5.131619 -11.654829 20.310666
RightToeBase 8.657124 -0.000000 -0.000000
403
root 8.199164 32.322611 2.518304 -8.374254 28.843363 -2.364001
Spine 6.542662 -8.938197 -1.230603
Head 11.154500 -18.370268 7.300270
LeftShoulder -11.119908 -3.106123 31.918589
LeftArm -7.444967 -5.364350 -86.757596
LeftForeArm -2.213146 -0.000000 115.250967
LeftHand 12.016143 -0.000000 10.650970
LeftHandThumb1 -26.253704 0.000000 33.147579
RightShoulder -22.371738 -16.527207 -20.056271
RightArm 18.041675 -24.903365 84.746174
RightForeArm -14.075700 -0.000000 25.058685
RightHand 17.099979 -0.000000 6.621854
RightHandThumb1 -24.326973 -0.000000 -32.862282
LeftUpLeg 10.520672 -9.160387 -8.620646
LeftLeg -0.495583 -0.000000 0.000000
LeftFoot -15.947947 11.466558 -23.106877
LeftToeBase 18.780519 -0.000000 -0.000000
RightUpLeg -49.644447 16.889154 10.659889
RightLeg 91.463679 -0.000000 -0.000000
RightFoot 5.073823 -11.763268 20.168287
RightToeBase 9.006638 -0.000000 -0.000000
404
root 8.195412 32.322526 2.505162 -8.389666 28.721046 -2.351298
Spine 6.530506 -8.927559 -1.214141
Head 11.203547 -18.293335 7.281068
LeftShoulder -11.120301 -3.129964 31.865263
LeftArm -7.472532 -5.457031 -86.744132
LeftForeArm -2.176082 -0.000000 115.209907
LeftHand 12.012155 0.000000 10.657898
LeftHandThumb1 -26.253704 0.000000 33.147579
RightShoulder -22.328032 -16.415638 -20.112431
RightArm 18.323684 -25.154436 84.598113
RightForeArm -14.169937 -0.000000 25.055107
RightHand 17.193900 0.000000 6.928296
RightHandThumb1 -24.326973 -0.000000 -32.862282
LeftUpLeg 10.541186 -9.097723 -8.624897
LeftLeg -0.535657 -0.000000 0.000000
LeftFoot -15.946626 11.471661 -23.135779
LeftToeBase 18.716494 -0.000000 -0.000000
RightUpLeg -49.595547 16.898631 10.712369
RightLeg 91.531742 -0.000000 -0.000000
RightFoot 5.176929 -11.889712 19.825723
RightToeBase 8.559652 -0.000000 -0.000000
405
root 8.193690 32.320917 2.492971 -8.386568 28.632620 -2.326504
Spine 6.504138 -8.941169 -1.216148
Head 11.227960 -18.220295 7.309226
LeftShoulder -11.146588 -3.087417 31.799729
LeftArm -7.406970 -5.530121 -86.729884
LeftForeArm -2.166724 -0.000000 115.156259
LeftHand 11.991559 -0.000000 10.623653
LeftHandThumb1 -26.253704 0.000000 33.147579
RightShoulder -22.295867 -16.286042 -20.177566
RightArm 18.540795 -25.431947 84.479154
RightForeArm -14.300270 -0.000000 25.045214
RightHand 17.169549 -0.000000 6.823312
RightHandThumb1 -24.326973 -0.000000 -32.862282
LeftUpLeg 10.552507 -9.072398 -8.648934
LeftLeg -0.577150 -0.000000 0.000000
LeftFoot -15.957075 11.515290 -23.139639
LeftToeBase 18.714076 -0.000000 -0.000000
RightUpLeg -49.560427 16.913283 10.745646
RightLeg 91.651778 -0.000000 -0.000000
RightFoot 5.049801 -12.021137 20.155386
RightToeBase 8.377342 -0.000000 -0.000000
